<svg id="Capa_1" enable-background="new 0 0 512 512" height="512" viewBox="0 0 512 512" width="512" xmlns="http://www.w3.org/2000/svg"><g id="XMLID_242_"><path id="XMLID_53_" d="m50.283 337.756h404.397c19.966 0 36.21 16.244 36.21 36.21v14.246c0 43.258-35.193 78.45-78.451 78.45h-319.915c-43.258 0-78.451-35.192-78.451-78.45v-14.246c0-19.966 16.244-36.21 36.21-36.21z" fill="#fc0"/><path id="XMLID_1528_" d="m454.681 337.757c19.966 0 36.21 16.244 36.21 36.21v14.246c0 43.258-35.193 78.45-78.451 78.45h-156.44v-128.906z" fill="#ff9e22"/><path id="XMLID_50_" d="m59.158 316.381h390.074c8.284 0 15 6.716 15 15 0 18.224-8.708 35.352-23.434 46.089l-29.527 21.53c-15.46 11.273-36.016 13.661-53.649 6.232l-28.752-12.112c-6.14-2.587-13.184-2.588-19.325 0l-34.04 14.341c-6.771 2.853-14.041 4.279-21.31 4.279s-14.539-1.427-21.31-4.279l-34.039-14.341c-6.179-2.603-13.146-2.603-19.325 0l-28.752 12.113c-17.632 7.43-38.189 5.041-53.648-6.232l-29.53-21.531c-14.725-10.737-23.434-27.864-23.434-46.089.001-8.284 6.716-15 15.001-15z" fill="#00eecf"/><path id="XMLID_319_" d="m464.232 331.381c0 18.224-8.708 35.352-23.434 46.089l-29.527 21.53c-15.46 11.273-36.016 13.661-53.649 6.232l-28.752-12.112c-6.14-2.587-13.184-2.588-19.325 0l-34.04 14.341c-6.211 2.617-12.84 4.018-19.505 4.235v-95.314h193.232c8.284-.001 15 6.715 15 14.999z" fill="#00ddc1"/><g id="XMLID_167_"><path id="XMLID_52_" d="m43.014 236.902h425.973c23.756 0 43.014 19.258 43.014 43.014v23.451c0 23.756-19.258 43.014-43.014 43.014h-425.973c-23.756 0-43.014-19.258-43.014-43.014v-23.451c0-23.756 19.258-43.014 43.014-43.014z" fill="#9d5015"/><g id="XMLID_316_"><path id="XMLID_441_" d="m468.986 236.903c23.756 0 43.014 19.258 43.014 43.013v23.451c0 23.756-19.258 43.014-43.014 43.014h-212.986v-109.478z" fill="#62320d"/></g><path id="XMLID_51_" d="m59.158 155.511h390.074c8.284 0 15 6.716 15 15v54.392c0 4.676-2.181 9.084-5.897 11.922l-54.492 41.607c-2.677 2.044-5.885 3.078-9.104 3.078-2.746 0-5.5-.752-7.937-2.273l-63.059-39.334h-264.585c-8.284 0-15-6.716-15-15v-54.392c0-8.284 6.716-15 15-15z" fill="#ffe377"/><g id="XMLID_453_"><path id="XMLID_528_" d="m449.232 155.511c8.284 0 15 6.716 15 15v54.392c0 4.676-2.181 9.084-5.897 11.922l-54.492 41.607c-2.677 2.044-5.885 3.078-9.104 3.078-2.746 0-5.5-.752-7.937-2.273l-63.059-39.334h-67.743v-84.392z" fill="#fc0"/></g><path id="XMLID_54_" d="m152.005 45.337h200.953c76.056 0 137.932 61.876 137.932 137.933 0 14.5-11.797 26.298-26.298 26.298h-424.221c-14.5 0-26.298-11.797-26.298-26.298 0-76.057 61.876-137.933 137.932-137.933z" fill="#fc0"/><g id="XMLID_32_"><path id="XMLID_997_" d="m352.958 45.337c76.056 0 137.932 61.876 137.932 137.933 0 14.5-11.797 26.298-26.298 26.298h-208.592v-164.231z" fill="#ff9e22"/></g></g></g></svg>