<svg id="Capa_1" enable-background="new 0 0 512.001 512.001" height="512" viewBox="0 0 512.001 512.001" width="512" xmlns="http://www.w3.org/2000/svg"><g id="XMLID_165_"><path id="XMLID_95_" d="m113.034 176.844c2.848-3.247 6.958-5.108 11.276-5.108h263.38c4.319 0 8.428 1.862 11.276 5.108s4.159 7.563 3.596 11.846l-40.769 310.265c-.98 7.464-7.343 13.045-14.871 13.045h-181.843c-7.529 0-13.891-5.581-14.872-13.046l-40.769-310.265c-.563-4.282.748-8.599 3.596-11.845z" fill="#989eec"/><g id="XMLID_322_"><path id="XMLID_440_" d="m387.69 171.735c4.319 0 8.428 1.862 11.276 5.108s4.159 7.563 3.596 11.846l-40.769 310.265c-.981 7.465-7.343 13.046-14.872 13.046h-90.921v-340.265z" fill="#7c83e7"/></g><g id="XMLID_93_"><path id="XMLID_106_" d="m261.226 146.427c8.284 0 15-6.716 15-15v-58.213c0-4.518-2.036-8.795-5.543-11.643l-71.668-58.214c-6.43-5.223-15.876-4.245-21.1 2.186-5.223 6.43-4.245 15.877 2.186 21.1l66.125 53.711v51.072c0 8.285 6.716 15.001 15 15.001z" fill="#ff80a9"/></g><g id="XMLID_318_"><path id="XMLID_439_" d="m270.683 61.571c3.507 2.848 5.543 7.125 5.543 11.643v58.213c0 8.284-6.716 15-15 15-1.841 0-3.596-.348-5.226-.955v-95.827z" fill="#ff5e92"/></g><g id="XMLID_87_"><g id="XMLID_90_"><g fill="#ff80a9"><path id="XMLID_110_" d="m122.678 289.449-4.421-33.644 84.069-84.07h38.066z"/><path id="XMLID_105_" d="m345.129 171.735-210.287 210.287-4.927-37.498 172.788-172.789z"/><path id="XMLID_100_" d="m398.967 176.844c2.848 3.247 4.159 7.563 3.596 11.846l-3.932 29.921-252.131 252.131-4.927-37.499 256.902-256.903c.163.17.336.327.492.504z"/><path id="XMLID_92_" d="m383.446 334.172-177.828 177.828h-40.539c-.599 0-1.188-.048-1.771-.116l226.556-226.556z"/></g><g id="XMLID_355_" fill="#ff5e92"><path id="XMLID_1583_" d="m302.703 171.735h42.426l-89.129 89.129v-42.426z"/><path id="XMLID_1582_" d="m398.967 176.844c2.848 3.247 4.159 7.563 3.596 11.846l-3.932 29.921-142.631 142.63v-42.426l142.475-142.475c.163.169.336.327.492.504z"/><path id="XMLID_1575_" d="m383.446 334.172-127.446 127.446v-42.426l133.864-133.864z"/></g><path id="XMLID_88_" d="m368.261 449.734-62.266 62.266h-42.426l111.11-111.11z" fill="#ff5e92"/></g></g><path id="XMLID_94_" d="m75.062 181.548 20.384-55.308c2.173-5.896 7.791-9.813 14.075-9.813h292.959c6.284 0 11.901 3.917 14.075 9.813l20.384 55.308c1.696 4.602 1.035 9.743-1.77 13.766s-7.4 6.421-12.305 6.421h-333.727c-4.905 0-9.5-2.398-12.305-6.421s-3.466-9.164-1.77-13.766z" fill="#efefef"/><g id="XMLID_1490_"><path id="XMLID_1439_" d="m402.48 116.427c6.284 0 11.901 3.917 14.075 9.813l20.384 55.308c1.696 4.602 1.035 9.743-1.77 13.766s-7.4 6.421-12.305 6.421h-166.864v-85.308z" fill="#e5e5e5"/></g></g></svg>