<svg id="Capa_1" enable-background="new 0 0 512 512" height="512" viewBox="0 0 512 512" width="512" xmlns="http://www.w3.org/2000/svg"><g id="XMLID_663_"><g id="XMLID_99_"><path id="XMLID_18_" d="m6.857 113.371 25.083 44.453c2.659 4.713 7.651 7.628 13.063 7.628h421.992c5.412 0 10.404-2.915 13.063-7.628l25.084-44.453c6.894-12.217 8.28-26.847 3.807-40.137-4.465-13.264-14.394-24.052-27.239-29.6-66.102-28.546-144.151-43.634-225.71-43.634s-159.609 15.088-225.71 43.633c-12.847 5.548-22.776 16.337-27.24 29.601-4.474 13.291-3.086 27.92 3.807 40.137z" fill="#fc0"/><g id="XMLID_181_"><path id="XMLID_146_" d="m481.711 43.633c12.846 5.548 22.774 16.336 27.239 29.6 4.474 13.291 3.087 27.92-3.807 40.137l-25.084 44.453c-2.659 4.713-7.651 7.628-13.063 7.628h-210.996v-165.451c81.56 0 159.608 15.088 225.711 43.633z" fill="#ff9e22"/></g><path id="XMLID_57_" d="m37.577 137.419c60.344-34.386 137.915-53.323 218.423-53.323 80.509 0 158.079 18.937 218.423 53.323 7.176 4.089 9.696 13.211 5.637 20.404l-187.998 333.164c-7.424 13.158-20.906 21.013-36.062 21.013s-28.638-7.855-36.063-21.013l-187.997-333.164c-4.059-7.193-1.539-16.315 5.637-20.404z" fill="#ffe377"/><g id="XMLID_119_"><path id="XMLID_175_" d="m474.423 137.419c7.176 4.089 9.696 13.211 5.637 20.404l-187.998 333.164c-7.425 13.158-20.906 21.013-36.062 21.013v-427.904c80.509 0 158.079 18.937 218.423 53.323z" fill="#fc0"/></g><g id="XMLID_113_"><g id="XMLID_62_"><path id="XMLID_60_" d="m147.871 161c-36.463 0-66.128 29.514-66.128 65.791s29.665 65.791 66.128 65.791c36.464 0 66.129-29.514 66.129-65.791s-29.665-65.791-66.129-65.791z" fill="#ff80a9"/></g></g><g fill="#ff80a9"><path id="XMLID_61_" d="m288.129 269.418c-36.464 0-66.129 29.514-66.129 65.791s29.665 65.791 66.129 65.791c36.463 0 66.128-29.514 66.128-65.791s-29.665-65.791-66.128-65.791z"/><ellipse id="XMLID_59_" cx="299.687" cy="176.384" rx="57.313" ry="57.034"/></g></g><g id="XMLID_14_" fill="#ff5e92"><path id="XMLID_176_" d="m288.129 269.418c-11.656 0-22.61 3.027-32.129 8.315v114.951c9.52 5.288 20.473 8.315 32.129 8.315 36.463 0 66.128-29.514 66.128-65.791 0-36.276-29.665-65.79-66.128-65.79z"/><path id="XMLID_35_" d="m299.687 233.418c31.603 0 57.313-25.585 57.313-57.034s-25.711-57.034-57.313-57.034c-17.49 0-33.166 7.846-43.687 20.176v73.717c10.521 12.33 26.197 20.175 43.687 20.175z"/></g></g></svg>