<svg id="Capa_1" enable-background="new 0 0 512 512" height="512" viewBox="0 0 512 512" width="512" xmlns="http://www.w3.org/2000/svg"><g id="XMLID_711_"><g id="XMLID_1496_"><g id="XMLID_432_"><path id="XMLID_537_" d="m230.385 233.786c12.787 0 24.807 4.986 33.846 14.04 18.645 18.672 18.644 49.057 0 67.731l-99.819 99.975c6.766 10.143 10.437 22.052 10.362 34.538-.034 16.64-6.551 32.26-18.352 43.982-11.418 11.342-26.636 17.714-42.851 17.942-16.223.228-31.613-5.721-43.335-16.75-9.913-9.328-16.357-21.418-18.644-34.508-13.071-2.294-25.147-8.751-34.46-18.679-10.803-11.517-16.721-26.568-16.721-42.471 0-.299.002-.599.006-.898.227-16.225 6.585-31.456 17.904-42.886 11.71-11.825 27.318-18.356 43.947-18.391 12.455-.025 24.351 3.595 34.478 10.361l99.792-99.948c9.041-9.053 21.061-14.038 33.847-14.038z" fill="#efefef"/></g></g><g id="XMLID_712_"><path id="XMLID_188_" d="m264.196 247.791-212.603 212.944c2.287 13.09 8.731 25.181 18.644 34.508 11.722 11.029 27.112 16.978 43.335 16.75 16.215-.228 31.433-6.6 42.851-17.942 11.801-11.722 18.318-27.342 18.352-43.982.075-12.486-3.596-24.395-10.362-34.538l99.819-99.975c18.644-18.674 18.645-49.059 0-67.731-.012-.012-.025-.022-.036-.034z" fill="#e5e5e5"/></g><path id="XMLID_187_" d="m468.67 43.066c57.225 57.315 57.226 150.573 0 207.888-34.487 34.541-83.709 49.645-131.669 40.403-5.873-1.132-11.879.696-16.067 4.891l-8.008 8.02c-3.253 3.258-5.107 7.548-5.222 12.08-.417 16.515-7.319 31.809-19.436 43.064-22.707 21.095-58.59 21.456-81.692.821-10.517-9.394-17.263-21.72-19.522-35.17-13.433-2.267-25.743-9.026-35.122-19.56-9.884-11.101-15.305-25.424-15.305-40.401 0-.211.001-.425.003-.637.156-15.198 5.881-29.658 16.122-40.716 11.244-12.141 26.525-19.057 43.028-19.475 4.511-.114 8.783-1.969 12.03-5.22l8.008-8.021c4.196-4.203 6.024-10.234 4.892-16.138-9.226-48.017 5.853-97.297 40.331-131.83 27.729-27.77 64.597-43.064 103.814-43.065 39.218 0 76.086 15.295 103.815 43.066z" fill="#ca671b"/><g id="XMLID_608_"><path id="XMLID_186_" d="m468.631 43.028-281.581 282.033c.002 0 .003.001.005.001 2.259 13.45 9.006 25.776 19.522 35.17 23.102 20.634 58.985 20.274 81.692-.821 12.116-11.255 19.019-26.549 19.436-43.064.115-4.531 1.969-8.822 5.222-12.08l8.008-8.02c4.188-4.194 10.194-6.022 16.067-4.891 47.96 9.242 97.183-5.862 131.669-40.403 57.226-57.315 57.225-150.572 0-207.888-.014-.012-.027-.024-.04-.037z" fill="#9d5015"/></g></g></svg>