<svg id="Capa_1" enable-background="new 0 0 512 512" height="512" viewBox="0 0 512 512" width="512" xmlns="http://www.w3.org/2000/svg"><g id="XMLID_981_"><g id="XMLID_877_"><path id="XMLID_1377_" d="m82.226 385.853c46.589-10.713 108.303-16.614 173.774-16.614s127.186 5.9 173.774 16.614c55.33 12.724 82.226 30.324 82.226 53.807s-26.896 41.083-82.226 53.807c-46.588 10.713-108.302 16.613-173.774 16.613s-127.186-5.9-173.774-16.614c-55.33-12.723-82.226-30.323-82.226-53.806s26.896-41.083 82.226-53.807z" fill="#efefef"/><g id="XMLID_379_"><path id="XMLID_166_" d="m429.774 385.853c-46.588-10.714-108.302-16.614-173.774-16.614v140.841c65.472 0 127.186-5.9 173.774-16.614 55.33-12.723 82.226-30.323 82.226-53.806s-26.896-41.083-82.226-53.807z" fill="#e5e5e5"/></g><g id="XMLID_380_"><g id="XMLID_251_"><path id="XMLID_487_" d="m411.927 253.522h-311.854c-8.284 0-15 6.716-15 15v171.138c0 8.284 6.716 15 15 15h311.854c8.284 0 15-6.716 15-15v-171.138c0-8.284-6.716-15-15-15z" fill="#ffe377"/></g><g id="XMLID_372_"><path id="XMLID_301_" d="m411.927 253.522h-155.927v201.138h155.927c8.284 0 15-6.716 15-15v-171.138c0-8.284-6.716-15-15-15z" fill="#fc0"/></g><g id="XMLID_1211_"><g id="XMLID_986_"><path id="XMLID_371_" d="m426.927 391.523c-113.951-49.843-227.903 38.758-341.854-11.085 0-16.545 0-33.091 0-49.636 113.951 49.843 227.902-38.758 341.854 11.085z" fill="#989eec"/></g></g><g id="XMLID_308_"><path id="XMLID_292_" d="m256 336.344v49.636c56.976-9.69 113.951-19.379 170.927 5.543 0-16.545 0-33.091 0-49.636-56.976-24.922-113.951-15.232-170.927-5.543z" fill="#7c83e7"/></g></g></g><path id="XMLID_182_" d="m423.314 258.758-63.107-73.589c-.237-.276-.483-.543-.739-.801-14.503-14.615-36.416-19.675-55.822-12.891-.199.069-.396.143-.592.221l-208.521 82.885c-6.688 2.658-10.545 9.691-9.191 16.76s7.536 12.179 14.732 12.179h311.854c5.858 0 11.181-3.411 13.629-8.734 2.447-5.322 1.571-11.583-2.243-16.03z" fill="#989eec"/><g id="XMLID_719_"><path id="XMLID_370_" d="m258.083 148.269c-8.284 0-15-6.716-15-15 0-24.839 6.446-51.604 17.687-73.431 14.73-28.605 37.159-48.388 64.861-57.208 7.895-2.513 16.331 1.849 18.844 9.742 2.514 7.894-1.849 16.331-9.742 18.844-48.765 15.526-61.649 73.544-61.649 102.053-.001 8.284-6.717 15-15.001 15z" fill="#ffe377"/></g><g id="XMLID_367_"><path id="XMLID_328_" d="m423.314 258.758-63.107-73.589c-.237-.276-.483-.543-.739-.801-14.503-14.615-36.416-19.675-55.822-12.891-.199.069-.396.143-.592.221l-47.054 18.702v93.122h155.927c5.858 0 11.181-3.411 13.629-8.734 2.447-5.322 1.571-11.583-2.242-16.03z" fill="#7c83e7"/></g><g id="XMLID_359_"><path id="XMLID_337_" d="m344.474 12.373c-2.513-7.894-10.949-12.255-18.844-9.742-27.702 8.82-50.131 28.603-64.861 57.208-1.707 3.315-3.289 6.755-4.769 10.273v77.996c.682.095 1.374.161 2.083.161 8.284 0 15-6.716 15-15 0-28.509 12.885-86.526 61.649-102.053 7.893-2.513 12.256-10.95 9.742-18.843z" fill="#fc0"/></g><path id="XMLID_369_" d="m306.602 115.684c-13.623-11.702-29.11-5.099-38.363-1.155-4.488 1.914-9.13 3.893-12.436 3.893-3.183 0-7.757-2.009-12.181-3.952-9.146-4.016-24.453-10.739-38.075.751-17.758 14.973-27.942 36.906-27.942 60.176 0 32.306 19.292 60.937 49.148 72.941 2.966 1.192 5.841 1.662 8.563 1.662 6.695 0 12.464-2.842 16.364-4.764 1.331-.656 3.279-1.617 4.249-1.907 1.069.244 3.306 1.255 4.829 1.943 6.049 2.735 15.19 6.868 25.515 2.479 28.993-12.331 47.727-40.731 47.727-72.354 0-22.993-9.986-44.758-27.398-59.713z" fill="#ff80a9"/><g id="XMLID_331_"><path id="XMLID_291_" d="m306.602 115.684c-13.623-11.702-29.11-5.099-38.363-1.155-4.403 1.878-8.946 3.806-12.238 3.879v124.94c1.093.268 3.264 1.249 4.758 1.924 6.049 2.735 15.19 6.868 25.515 2.479 28.992-12.331 47.726-40.731 47.726-72.354 0-22.993-9.986-44.758-27.398-59.713z" fill="#ff5e92"/></g></g></svg>