<svg xmlns="http://www.w3.org/2000/svg" viewBox="0 0 170.08 63.97"><defs><style>.cls-1{fill:#002c51;}.cls-2{fill:#0070b3;}</style></defs><title>Asset 1</title><g id="Layer_2" data-name="Layer 2"><g id="Layer_1-2" data-name="Layer 1"><path class="cls-1" d="M0,5.82v5.81H11.63V0H5.81A5.81,5.81,0,0,0,0,5.82Z"/><polygon class="cls-1" points="44.34 15.18 24.31 31.99 44.34 48.79 44.34 63.98 15.26 39.58 15.26 24.39 44.34 0 44.34 15.18"/><polygon class="cls-1" points="11.63 14.54 11.63 42.63 0.06 52.34 0 52.34 0 14.54 11.63 14.54"/><path class="cls-1" d="M72.25,23.4H73a1.69,1.69,0,0,0,1.49-.65L79,16.19a2,2,0,0,1,.84-.73A3.33,3.33,0,0,1,81,15.27h4l-6,8.12a4.3,4.3,0,0,1-.66.73,4.43,4.43,0,0,1-.71.48,3.46,3.46,0,0,1,1,.53,3.36,3.36,0,0,1,.79.9l6.06,9.31H81.39a4.4,4.4,0,0,1-.68-.05,1.66,1.66,0,0,1-.49-.17,1.31,1.31,0,0,1-.35-.27,1.76,1.76,0,0,1-.29-.36L75,27.5A1.36,1.36,0,0,0,74.4,27a2.59,2.59,0,0,0-1-.16H72.25v8.54H67.59V15.27h4.66Z"/><path class="cls-1" d="M94.45,27.92v7.42H89.79V15.27h6.53a13.3,13.3,0,0,1,3.71.45A6.87,6.87,0,0,1,102.54,17,4.65,4.65,0,0,1,104,18.85a6.36,6.36,0,0,1,.44,2.37,6.56,6.56,0,0,1-.26,1.85,5.29,5.29,0,0,1-.78,1.6A6.09,6.09,0,0,1,102.08,26a6.94,6.94,0,0,1-1.72,1,4.55,4.55,0,0,1,.87.58,3.44,3.44,0,0,1,.71.84l4.27,7H102a1.78,1.78,0,0,1-1.68-.88L97,28.63a1.46,1.46,0,0,0-.52-.55,1.7,1.7,0,0,0-.83-.16Zm0-3.21h1.87a4.85,4.85,0,0,0,1.62-.24A3,3,0,0,0,99,23.8a2.55,2.55,0,0,0,.62-1,3.78,3.78,0,0,0,.2-1.23A2.57,2.57,0,0,0,99,19.5a4,4,0,0,0-2.66-.74H94.45Z"/><path class="cls-1" d="M131.66,25.3a10.8,10.8,0,0,1-.75,4.05,9.61,9.61,0,0,1-5.4,5.43,12.05,12.05,0,0,1-8.53,0,9.82,9.82,0,0,1-3.3-2.17,9.7,9.7,0,0,1-2.13-3.26,11.31,11.31,0,0,1,0-8.1A9.59,9.59,0,0,1,117,15.84a11.91,11.91,0,0,1,8.53,0A9.83,9.83,0,0,1,128.79,18a9.68,9.68,0,0,1,2.12,3.25A10.79,10.79,0,0,1,131.66,25.3Zm-4.77,0a8.9,8.9,0,0,0-.38-2.68,5.79,5.79,0,0,0-1.11-2,4.7,4.7,0,0,0-1.77-1.26,6,6,0,0,0-2.38-.45,6.09,6.09,0,0,0-2.41.45,4.82,4.82,0,0,0-1.78,1.26,5.62,5.62,0,0,0-1.1,2A9.44,9.44,0,0,0,116,28a5.54,5.54,0,0,0,1.1,2,4.82,4.82,0,0,0,1.78,1.26,6.28,6.28,0,0,0,2.41.43,6.16,6.16,0,0,0,2.38-.43A4.7,4.7,0,0,0,125.4,30a5.71,5.71,0,0,0,1.11-2A8.92,8.92,0,0,0,126.89,25.3Z"/><path class="cls-1" d="M149.17,15.27v3.58h-8.23v5.09h6.86v3.59h-6.86v7.81h-4.69V15.27Z"/><path class="cls-1" d="M170.08,15.27V19h-5.65V35.34h-4.66V19h-5.64V15.27Z"/><path class="cls-2" d="M82.88,42.79a.59.59,0,0,1-.17.18.36.36,0,0,1-.22.07.59.59,0,0,1-.26-.08l-.31-.17a3,3,0,0,0-.4-.17,1.61,1.61,0,0,0-.51-.07,1.11,1.11,0,0,0-.74.21.72.72,0,0,0-.24.57.52.52,0,0,0,.15.38,1.11,1.11,0,0,0,.38.26,4.75,4.75,0,0,0,.54.2l.62.2c.22.08.42.17.63.27a2.29,2.29,0,0,1,.54.38,1.73,1.73,0,0,1,.38.57,2,2,0,0,1,.15.81,2.68,2.68,0,0,1-.18,1,2.28,2.28,0,0,1-.53.8,2.43,2.43,0,0,1-.86.54,3.19,3.19,0,0,1-1.15.19,3.51,3.51,0,0,1-.72-.07,4.27,4.27,0,0,1-.72-.21,3.44,3.44,0,0,1-.64-.31,2.76,2.76,0,0,1-.53-.41l.52-.82a.46.46,0,0,1,.39-.21.54.54,0,0,1,.31.1l.36.22a4,4,0,0,0,.46.22,1.92,1.92,0,0,0,.62.1,1.19,1.19,0,0,0,.75-.21.85.85,0,0,0,.26-.68.67.67,0,0,0-.14-.43,1.13,1.13,0,0,0-.39-.27,3.39,3.39,0,0,0-.54-.2l-.62-.18a4.73,4.73,0,0,1-.62-.25,2.07,2.07,0,0,1-.54-.39,2,2,0,0,1-.38-.61,2.33,2.33,0,0,1-.15-.89,2.21,2.21,0,0,1,.17-.84,2.25,2.25,0,0,1,.51-.72,2.59,2.59,0,0,1,.82-.51A2.93,2.93,0,0,1,81,41.16a5.06,5.06,0,0,1,.68.05,4.15,4.15,0,0,1,.63.16,4,4,0,0,1,.55.26,2.36,2.36,0,0,1,.47.34Z"/><path class="cls-2" d="M94.72,45a4,4,0,0,1-.29,1.53,3.69,3.69,0,0,1-2,2.06,4.45,4.45,0,0,1-1.62.29,4.35,4.35,0,0,1-1.61-.29,3.65,3.65,0,0,1-1.25-.83,3.56,3.56,0,0,1-.81-1.23,4.32,4.32,0,0,1,0-3.06,3.59,3.59,0,0,1,2.06-2,4.16,4.16,0,0,1,1.61-.3,4.25,4.25,0,0,1,1.62.3,3.68,3.68,0,0,1,1.24.82,3.79,3.79,0,0,1,.8,1.23A4,4,0,0,1,94.72,45Zm-1.81,0a3.22,3.22,0,0,0-.15-1,1.94,1.94,0,0,0-.42-.76,1.72,1.72,0,0,0-.67-.48,2.29,2.29,0,0,0-.9-.17,2.38,2.38,0,0,0-.91.17,1.79,1.79,0,0,0-.67.48,2.23,2.23,0,0,0-.42.76,3.54,3.54,0,0,0,0,2,2.23,2.23,0,0,0,.42.76,1.79,1.79,0,0,0,.67.48,2.38,2.38,0,0,0,.91.16,2.29,2.29,0,0,0,.9-.16,1.72,1.72,0,0,0,.67-.48,1.94,1.94,0,0,0,.42-.76A3.22,3.22,0,0,0,92.91,45Z"/><path class="cls-2" d="M100.24,47.43h2.82v1.41H98.48v-7.6h1.76Z"/><path class="cls-2" d="M110,47.45a1.62,1.62,0,0,0,.64-.12,1.32,1.32,0,0,0,.47-.34,1.44,1.44,0,0,0,.3-.53,2.61,2.61,0,0,0,.1-.72v-4.5h1.76v4.5A3.57,3.57,0,0,1,113,47a2.79,2.79,0,0,1-.65,1,3,3,0,0,1-1,.66,3.72,3.72,0,0,1-1.37.23,3.66,3.66,0,0,1-1.36-.23A2.87,2.87,0,0,1,106.93,47a3.57,3.57,0,0,1-.22-1.29v-4.5h1.76v4.5a2.59,2.59,0,0,0,.1.71,1.57,1.57,0,0,0,.3.54,1.32,1.32,0,0,0,.47.34A1.61,1.61,0,0,0,110,47.45Z"/><path class="cls-2" d="M122.82,41.24v1.4h-2.13v6.2h-1.77v-6.2h-2.13v-1.4Z"/><path class="cls-2" d="M128.4,48.84h-1.77v-7.6h1.77Z"/><path class="cls-2" d="M140.23,45a4,4,0,0,1-.28,1.53,3.69,3.69,0,0,1-.8,1.23,3.74,3.74,0,0,1-1.25.83,4.35,4.35,0,0,1-1.61.29,4.45,4.45,0,0,1-1.62-.29,3.85,3.85,0,0,1-1.25-.83,3.69,3.69,0,0,1-.8-1.23,4.32,4.32,0,0,1,0-3.06,3.73,3.73,0,0,1,.8-1.24,3.8,3.8,0,0,1,1.25-.81,4.25,4.25,0,0,1,1.62-.3,4.16,4.16,0,0,1,1.61.3,3.72,3.72,0,0,1,1.25.82,3.79,3.79,0,0,1,.8,1.23A4,4,0,0,1,140.23,45Zm-1.8,0a3.22,3.22,0,0,0-.15-1,2.23,2.23,0,0,0-.42-.76,1.72,1.72,0,0,0-.67-.48,2.29,2.29,0,0,0-.9-.17,2.38,2.38,0,0,0-.91.17,1.72,1.72,0,0,0-.67.48,1.94,1.94,0,0,0-.42.76,3.54,3.54,0,0,0,0,2,1.94,1.94,0,0,0,.42.76,1.72,1.72,0,0,0,.67.48,2.38,2.38,0,0,0,.91.16,2.29,2.29,0,0,0,.9-.16,1.72,1.72,0,0,0,.67-.48,2.23,2.23,0,0,0,.42-.76A3.22,3.22,0,0,0,138.43,45Z"/><path class="cls-2" d="M145.12,41.25l.14,0,.12.08.13.14,3.61,4.57a3.22,3.22,0,0,1,0-.43c0-.14,0-.27,0-.39v-4h1.55v7.6h-.92a.86.86,0,0,1-.34-.06.64.64,0,0,1-.27-.23L145.51,44c0,.13,0,.26,0,.39s0,.25,0,.36v4.07H144v-7.6h1.12Z"/><path class="cls-2" d="M159,42.79a.59.59,0,0,1-.17.18.36.36,0,0,1-.22.07.59.59,0,0,1-.26-.08l-.31-.17a3,3,0,0,0-.4-.17,1.61,1.61,0,0,0-.51-.07,1.11,1.11,0,0,0-.74.21.72.72,0,0,0-.24.57.52.52,0,0,0,.15.38,1.11,1.11,0,0,0,.38.26,4.75,4.75,0,0,0,.54.2l.62.2c.22.08.42.17.63.27a2.29,2.29,0,0,1,.54.38,1.73,1.73,0,0,1,.38.57,2,2,0,0,1,.15.81,2.68,2.68,0,0,1-.18,1,2.28,2.28,0,0,1-.53.8,2.43,2.43,0,0,1-.86.54,3.19,3.19,0,0,1-1.15.19,3.51,3.51,0,0,1-.72-.07,4.27,4.27,0,0,1-.72-.21,3.44,3.44,0,0,1-.64-.31,2.76,2.76,0,0,1-.53-.41l.52-.82a.46.46,0,0,1,.39-.21.54.54,0,0,1,.31.1l.36.22a4,4,0,0,0,.46.22,1.92,1.92,0,0,0,.62.1,1.19,1.19,0,0,0,.75-.21.85.85,0,0,0,.26-.68.67.67,0,0,0-.14-.43,1.13,1.13,0,0,0-.39-.27,3.39,3.39,0,0,0-.54-.2l-.62-.18a4.73,4.73,0,0,1-.62-.25,2.07,2.07,0,0,1-.54-.39,2,2,0,0,1-.38-.61,2.33,2.33,0,0,1-.15-.89,2.21,2.21,0,0,1,.17-.84,2.25,2.25,0,0,1,.51-.72,2.59,2.59,0,0,1,.82-.51,2.93,2.93,0,0,1,1.11-.19,5.06,5.06,0,0,1,.68.05,4.15,4.15,0,0,1,.63.16,4,4,0,0,1,.55.26,2.36,2.36,0,0,1,.47.34Z"/></g></g></svg>